<svg xmlns="http://www.w3.org/2000/svg" width="26" height="26" viewBox="0 0 1024 1024">
  <path fill="#FFFFFF" d="M416,160 L224,160 C188.65,160 160,188.65 160,224 L160,416 C160,451.35 188.65,480 224,480 L416,480 C451.35,480 480,451.35 480,416 L480,224 C480,188.65 451.35,160 416,160 Z M416,416 L224,416 L224,224 L416,224 Z M800,160 L608,160 C572.65,160 544,188.65 544,224 L544,416 C544,451.35 572.65,480 608,480 L800,480 C835.35,480 864,451.35 864,416 L864,224 C864,188.65 835.35,160 800,160 Z M800,416 L608,416 L608,224 L800,224 Z M416,544 L224,544 C188.65,544 160,572.65 160,608 L160,800 C160,835.35 188.65,864 224,864 L416,864 C451.35,864 480,835.35 480,800 L480,608 C480,572.65 451.35,544 416,544 Z M416,800 L224,800 L224,608 L416,608 Z M800,544 L608,544 C572.65,544 544,572.65 544,608 L544,800 C544,835.35 572.65,864 608,864 L800,864 C835.35,864 864,835.35 864,800 L864,608 C864,572.65 835.35,544 800,544 Z M800,800 L608,800 L608,608 L800,608 Z"/>
</svg>
